<svg width="398" height="48" viewBox="0 0 398 48" fill="none" xmlns="http://www.w3.org/2000/svg">
<path d="M30.2012 34.4111C28.5736 35.8109 26.7507 36.8851 24.7324 37.6338C22.7142 38.3825 20.6227 38.7568 18.458 38.7568C16.7979 38.7568 15.1947 38.5371 13.6484 38.0977C12.1185 37.6745 10.6781 37.0723 9.32715 36.291C7.99251 35.4935 6.77181 34.5413 5.66504 33.4346C4.55827 32.3278 3.60612 31.1071 2.80859 29.7725C2.02734 28.4215 1.41699 26.9811 0.977539 25.4512C0.554362 23.9049 0.342773 22.3018 0.342773 20.6416C0.342773 18.9814 0.554362 17.3783 0.977539 15.832C1.41699 14.2858 2.02734 12.8454 2.80859 11.5107C3.60612 10.1598 4.55827 8.93099 5.66504 7.82422C6.77181 6.71745 7.99251 5.77344 9.32715 4.99219C10.6781 4.19466 12.1185 3.58431 13.6484 3.16113C15.1947 2.72168 16.7979 2.50195 18.458 2.50195C20.6227 2.50195 22.7142 2.8763 24.7324 3.625C26.7507 4.35742 28.5736 5.43164 30.2012 6.84766L26.4902 12.9512C25.4648 11.8444 24.2523 10.998 22.8525 10.4121C21.4528 9.8099 19.988 9.50879 18.458 9.50879C16.9118 9.50879 15.4632 9.80176 14.1123 10.3877C12.7614 10.9736 11.5814 11.7712 10.5723 12.7803C9.56315 13.7731 8.76562 14.9531 8.17969 16.3203C7.59375 17.6712 7.30078 19.1117 7.30078 20.6416C7.30078 22.1715 7.59375 23.612 8.17969 24.9629C8.76562 26.2975 9.56315 27.4694 10.5723 28.4785C11.5814 29.4876 12.7614 30.2852 14.1123 30.8711C15.4632 31.457 16.9118 31.75 18.458 31.75C19.988 31.75 21.4528 31.457 22.8525 30.8711C24.2523 30.2689 25.4648 29.4144 26.4902 28.3076L30.2012 34.4111ZM41.4316 4.74805C41.4316 5.36654 41.3096 5.94434 41.0654 6.48145C40.8376 7.01855 40.5202 7.49056 40.1133 7.89746C39.7064 8.28809 39.2262 8.60547 38.6729 8.84961C38.1357 9.07747 37.5579 9.19141 36.9395 9.19141C36.321 9.19141 35.735 9.07747 35.1816 8.84961C34.6445 8.60547 34.1725 8.28809 33.7656 7.89746C33.375 7.49056 33.0576 7.01855 32.8135 6.48145C32.5856 5.94434 32.4717 5.36654 32.4717 4.74805C32.4717 4.14583 32.5856 3.57617 32.8135 3.03906C33.0576 2.48568 33.375 2.01367 33.7656 1.62305C34.1725 1.21615 34.6445 0.898763 35.1816 0.670898C35.735 0.426758 36.321 0.304688 36.9395 0.304688C37.5579 0.304688 38.1357 0.426758 38.6729 0.670898C39.2262 0.898763 39.7064 1.21615 40.1133 1.62305C40.5202 2.01367 40.8376 2.48568 41.0654 3.03906C41.3096 3.57617 41.4316 4.14583 41.4316 4.74805ZM40.2842 38H33.5703V11.8525H40.2842V38ZM52.0518 38H45.3867V11.8525H46.998L49.1953 14.3916C50.2695 13.415 51.4821 12.6663 52.833 12.1455C54.2002 11.6084 55.6243 11.3398 57.1055 11.3398C58.7005 11.3398 60.2061 11.6491 61.6221 12.2676C63.0381 12.8698 64.2751 13.708 65.333 14.7822C66.391 15.8402 67.221 17.0853 67.8232 18.5176C68.4417 19.9336 68.751 21.4473 68.751 23.0586V38H62.0859V23.0586C62.0859 22.375 61.9557 21.7321 61.6953 21.1299C61.4349 20.5114 61.0768 19.9743 60.6211 19.5186C60.1654 19.0628 59.6364 18.7048 59.0342 18.4443C58.432 18.1839 57.7891 18.0537 57.1055 18.0537C56.4056 18.0537 55.7464 18.1839 55.1279 18.4443C54.5094 18.7048 53.9723 19.0628 53.5166 19.5186C53.0609 19.9743 52.7028 20.5114 52.4424 21.1299C52.182 21.7321 52.0518 22.375 52.0518 23.0586V38ZM86.2803 38C84.6689 38 83.1553 37.6989 81.7393 37.0967C80.3232 36.4782 79.0781 35.64 78.0039 34.582C76.946 33.5078 76.1077 32.2627 75.4893 30.8467C74.887 29.4307 74.5859 27.917 74.5859 26.3057V18.542H71.3389V11.9014H74.5859V1.45215H81.2266V11.9014H91.334V18.542H81.2266V26.3057C81.2266 27.0055 81.3568 27.6647 81.6172 28.2832C81.8776 28.8854 82.2357 29.4144 82.6914 29.8701C83.1471 30.3258 83.6842 30.6921 84.3027 30.9688C84.9212 31.2292 85.5804 31.3594 86.2803 31.3594H91.334V38H86.2803ZM101.759 38H95.0938V11.8525H96.7051L98.9023 14.9531C99.9766 13.9766 101.197 13.2279 102.564 12.707C103.932 12.1699 105.348 11.9014 106.812 11.9014H112.696V18.542H106.812C106.113 18.542 105.453 18.6722 104.835 18.9326C104.216 19.193 103.679 19.5511 103.224 20.0068C102.768 20.4626 102.41 20.9997 102.149 21.6182C101.889 22.2367 101.759 22.8958 101.759 23.5957V38ZM140.626 38H139.015L136.427 34.4111C135.792 34.9808 135.117 35.5179 134.4 36.0225C133.701 36.5107 132.96 36.9421 132.179 37.3164C131.397 37.6745 130.592 37.9593 129.762 38.1709C128.948 38.3825 128.118 38.4883 127.271 38.4883C125.432 38.4883 123.699 38.179 122.071 37.5605C120.46 36.9421 119.044 36.0469 117.823 34.875C116.619 33.6868 115.667 32.2383 114.967 30.5293C114.267 28.8203 113.917 26.8753 113.917 24.6943C113.917 22.6598 114.267 20.7962 114.967 19.1035C115.667 17.3945 116.619 15.9297 117.823 14.709C119.044 13.4883 120.46 12.5443 122.071 11.877C123.699 11.1934 125.432 10.8516 127.271 10.8516C128.118 10.8516 128.956 10.9574 129.786 11.1689C130.616 11.3805 131.422 11.6735 132.203 12.0479C132.984 12.4222 133.725 12.8617 134.425 13.3662C135.141 13.8708 135.808 14.416 136.427 15.002L139.015 11.9014H140.626V38ZM133.912 24.6943C133.912 23.7829 133.733 22.904 133.375 22.0576C133.033 21.195 132.561 20.4382 131.959 19.7871C131.357 19.1198 130.649 18.5908 129.835 18.2002C129.037 17.7933 128.183 17.5898 127.271 17.5898C126.36 17.5898 125.497 17.7445 124.684 18.0537C123.886 18.363 123.186 18.8187 122.584 19.4209C121.998 20.0231 121.534 20.7718 121.192 21.667C120.851 22.5459 120.68 23.555 120.68 24.6943C120.68 25.8337 120.851 26.8509 121.192 27.7461C121.534 28.625 121.998 29.3656 122.584 29.9678C123.186 30.57 123.886 31.0257 124.684 31.335C125.497 31.6442 126.36 31.7988 127.271 31.7988C128.183 31.7988 129.037 31.6035 129.835 31.2129C130.649 30.806 131.357 30.277 131.959 29.626C132.561 28.9587 133.033 28.2018 133.375 27.3555C133.733 26.4928 133.912 25.6058 133.912 24.6943ZM199.024 38H197.413L194.825 34.4111C194.19 34.9808 193.515 35.5179 192.799 36.0225C192.099 36.5107 191.358 36.9421 190.577 37.3164C189.796 37.6745 188.99 37.9593 188.16 38.1709C187.346 38.3825 186.516 38.4883 185.67 38.4883C183.831 38.4883 182.097 38.1465 180.47 37.4629C178.858 36.763 177.442 35.8027 176.222 34.582C175.017 33.3451 174.065 31.8883 173.365 30.2119C172.665 28.5192 172.315 26.68 172.315 24.6943C172.315 22.7249 172.665 20.8939 173.365 19.2012C174.065 17.5085 175.017 16.0436 176.222 14.8066C177.442 13.5697 178.858 12.6012 180.47 11.9014C182.097 11.2015 183.831 10.8516 185.67 10.8516C186.256 10.8516 186.858 10.9004 187.477 10.998C188.111 11.0957 188.722 11.2585 189.308 11.4863C189.91 11.6979 190.471 11.9827 190.992 12.3408C191.513 12.6989 191.952 13.1383 192.311 13.6592V1.45215H199.024V38ZM192.311 24.6943C192.311 23.7829 192.132 22.904 191.773 22.0576C191.432 21.195 190.96 20.4382 190.357 19.7871C189.755 19.1198 189.047 18.5908 188.233 18.2002C187.436 17.7933 186.581 17.5898 185.67 17.5898C184.758 17.5898 183.896 17.7526 183.082 18.0781C182.285 18.4036 181.585 18.8757 180.982 19.4941C180.396 20.0964 179.933 20.8369 179.591 21.7158C179.249 22.5947 179.078 23.5876 179.078 24.6943C179.078 25.6546 179.249 26.5661 179.591 27.4287C179.933 28.2913 180.396 29.0482 180.982 29.6992C181.585 30.3503 182.285 30.863 183.082 31.2373C183.896 31.6117 184.758 31.7988 185.67 31.7988C186.581 31.7988 187.436 31.6035 188.233 31.2129C189.047 30.806 189.755 30.277 190.357 29.626C190.96 28.9587 191.432 28.2018 191.773 27.3555C192.132 26.4928 192.311 25.6058 192.311 24.6943ZM214.527 31.6035C214.788 31.6849 215.048 31.7419 215.309 31.7744C215.569 31.7907 215.829 31.7988 216.09 31.7988C216.741 31.7988 217.368 31.7093 217.97 31.5303C218.572 31.3512 219.133 31.099 219.654 30.7734C220.191 30.4316 220.663 30.0247 221.07 29.5527C221.493 29.0645 221.835 28.5273 222.096 27.9414L226.979 32.8486C226.36 33.7275 225.644 34.5169 224.83 35.2168C224.033 35.9167 223.162 36.5107 222.218 36.999C221.29 37.4873 220.305 37.8535 219.264 38.0977C218.238 38.3581 217.18 38.4883 216.09 38.4883C214.251 38.4883 212.517 38.1465 210.89 37.4629C209.278 36.7793 207.862 35.8271 206.642 34.6064C205.437 33.3857 204.485 31.9372 203.785 30.2607C203.085 28.568 202.735 26.7126 202.735 24.6943C202.735 22.6273 203.085 20.7393 203.785 19.0303C204.485 17.3213 205.437 15.8646 206.642 14.6602C207.862 13.4557 209.278 12.5199 210.89 11.8525C212.517 11.1852 214.251 10.8516 216.09 10.8516C217.18 10.8516 218.246 10.9818 219.288 11.2422C220.33 11.5026 221.314 11.877 222.242 12.3652C223.186 12.8535 224.065 13.4557 224.879 14.1719C225.693 14.8717 226.409 15.6611 227.027 16.54L214.527 31.6035ZM217.945 17.8584C217.636 17.7445 217.327 17.6712 217.018 17.6387C216.725 17.6061 216.415 17.5898 216.09 17.5898C215.178 17.5898 214.316 17.7607 213.502 18.1025C212.704 18.4281 212.005 18.9001 211.402 19.5186C210.816 20.137 210.353 20.8857 210.011 21.7646C209.669 22.6273 209.498 23.6038 209.498 24.6943C209.498 24.9385 209.506 25.2152 209.522 25.5244C209.555 25.8337 209.596 26.151 209.645 26.4766C209.71 26.7858 209.783 27.0869 209.864 27.3799C209.946 27.6729 210.051 27.9333 210.182 28.1611L217.945 17.8584ZM237.477 38L227.516 11.8525H235.108L240.821 28.1611L246.51 11.8525H254.127L244.166 38H237.477ZM266.285 31.6035C266.546 31.6849 266.806 31.7419 267.066 31.7744C267.327 31.7907 267.587 31.7988 267.848 31.7988C268.499 31.7988 269.125 31.7093 269.728 31.5303C270.33 31.3512 270.891 31.099 271.412 30.7734C271.949 30.4316 272.421 30.0247 272.828 29.5527C273.251 29.0645 273.593 28.5273 273.854 27.9414L278.736 32.8486C278.118 33.7275 277.402 34.5169 276.588 35.2168C275.79 35.9167 274.92 36.5107 273.976 36.999C273.048 37.4873 272.063 37.8535 271.021 38.0977C269.996 38.3581 268.938 38.4883 267.848 38.4883C266.008 38.4883 264.275 38.1465 262.647 37.4629C261.036 36.7793 259.62 35.8271 258.399 34.6064C257.195 33.3857 256.243 31.9372 255.543 30.2607C254.843 28.568 254.493 26.7126 254.493 24.6943C254.493 22.6273 254.843 20.7393 255.543 19.0303C256.243 17.3213 257.195 15.8646 258.399 14.6602C259.62 13.4557 261.036 12.5199 262.647 11.8525C264.275 11.1852 266.008 10.8516 267.848 10.8516C268.938 10.8516 270.004 10.9818 271.046 11.2422C272.088 11.5026 273.072 11.877 274 12.3652C274.944 12.8535 275.823 13.4557 276.637 14.1719C277.451 14.8717 278.167 15.6611 278.785 16.54L266.285 31.6035ZM269.703 17.8584C269.394 17.7445 269.085 17.6712 268.775 17.6387C268.482 17.6061 268.173 17.5898 267.848 17.5898C266.936 17.5898 266.074 17.7607 265.26 18.1025C264.462 18.4281 263.762 18.9001 263.16 19.5186C262.574 20.137 262.11 20.8857 261.769 21.7646C261.427 22.6273 261.256 23.6038 261.256 24.6943C261.256 24.9385 261.264 25.2152 261.28 25.5244C261.313 25.8337 261.354 26.151 261.402 26.4766C261.467 26.7858 261.541 27.0869 261.622 27.3799C261.703 27.6729 261.809 27.9333 261.939 28.1611L269.703 17.8584ZM288.868 38H282.154V1.45215H288.868V38ZM319.239 24.6943C319.239 26.6475 318.889 28.4704 318.189 30.1631C317.49 31.8395 316.537 33.2962 315.333 34.5332C314.129 35.7539 312.713 36.7223 311.085 37.4385C309.474 38.1383 307.74 38.4883 305.885 38.4883C304.046 38.4883 302.312 38.1383 300.685 37.4385C299.073 36.7223 297.657 35.7539 296.437 34.5332C295.232 33.2962 294.28 31.8395 293.58 30.1631C292.88 28.4704 292.53 26.6475 292.53 24.6943C292.53 22.7087 292.88 20.8695 293.58 19.1768C294.28 17.484 295.232 16.0273 296.437 14.8066C297.657 13.5697 299.073 12.6012 300.685 11.9014C302.312 11.2015 304.046 10.8516 305.885 10.8516C307.74 10.8516 309.474 11.1852 311.085 11.8525C312.713 12.5036 314.129 13.4395 315.333 14.6602C316.537 15.8646 317.49 17.3213 318.189 19.0303C318.889 20.723 319.239 22.611 319.239 24.6943ZM312.525 24.6943C312.525 23.6201 312.346 22.6517 311.988 21.7891C311.646 20.9102 311.174 20.1615 310.572 19.543C309.97 18.9082 309.262 18.4281 308.448 18.1025C307.651 17.7607 306.796 17.5898 305.885 17.5898C304.973 17.5898 304.111 17.7607 303.297 18.1025C302.499 18.4281 301.799 18.9082 301.197 19.543C300.611 20.1615 300.147 20.9102 299.806 21.7891C299.464 22.6517 299.293 23.6201 299.293 24.6943C299.293 25.7035 299.464 26.6393 299.806 27.502C300.147 28.3646 300.611 29.1133 301.197 29.748C301.799 30.3828 302.499 30.8874 303.297 31.2617C304.111 31.6198 304.973 31.7988 305.885 31.7988C306.796 31.7988 307.651 31.6279 308.448 31.2861C309.262 30.9443 309.97 30.4642 310.572 29.8457C311.174 29.2272 311.646 28.4785 311.988 27.5996C312.346 26.7207 312.525 25.7523 312.525 24.6943ZM329.64 47.9609H322.926V11.8525H324.537L327.198 15.002C327.8 14.4323 328.46 13.8952 329.176 13.3906C329.892 12.8861 330.632 12.4548 331.397 12.0967C332.179 11.7223 332.984 11.4294 333.814 11.2178C334.645 11.0062 335.483 10.9004 336.329 10.9004C338.168 10.9004 339.894 11.234 341.505 11.9014C343.132 12.5524 344.549 13.4801 345.753 14.6846C346.974 15.889 347.934 17.3457 348.634 19.0547C349.334 20.7474 349.684 22.6273 349.684 24.6943C349.684 26.8428 349.334 28.7796 348.634 30.5049C347.934 32.2139 346.974 33.6706 345.753 34.875C344.549 36.0632 343.132 36.9746 341.505 37.6094C339.894 38.2441 338.168 38.5615 336.329 38.5615C335.743 38.5615 335.157 38.4964 334.571 38.3662C334.002 38.236 333.432 38.0651 332.862 37.8535C332.309 37.6257 331.756 37.3734 331.202 37.0967C330.665 36.82 330.144 36.5352 329.64 36.2422V47.9609ZM342.994 24.6943C342.994 23.5876 342.815 22.5947 342.457 21.7158C342.115 20.8369 341.643 20.0964 341.041 19.4941C340.439 18.8757 339.731 18.4036 338.917 18.0781C338.103 17.7526 337.241 17.5898 336.329 17.5898C335.418 17.5898 334.555 17.7526 333.741 18.0781C332.944 18.4036 332.244 18.8757 331.642 19.4941C331.039 20.0964 330.559 20.8369 330.201 21.7158C329.859 22.5947 329.688 23.5876 329.688 24.6943C329.688 25.7523 329.859 26.7207 330.201 27.5996C330.559 28.4785 331.039 29.2272 331.642 29.8457C332.244 30.4642 332.944 30.9443 333.741 31.2861C334.555 31.6279 335.418 31.7988 336.329 31.7988C337.241 31.7988 338.103 31.6279 338.917 31.2861C339.731 30.9443 340.439 30.4642 341.041 29.8457C341.643 29.2272 342.115 28.4785 342.457 27.5996C342.815 26.7207 342.994 25.7523 342.994 24.6943ZM363.795 31.6035C364.055 31.6849 364.316 31.7419 364.576 31.7744C364.837 31.7907 365.097 31.7988 365.357 31.7988C366.008 31.7988 366.635 31.7093 367.237 31.5303C367.84 31.3512 368.401 31.099 368.922 30.7734C369.459 30.4316 369.931 30.0247 370.338 29.5527C370.761 29.0645 371.103 28.5273 371.363 27.9414L376.246 32.8486C375.628 33.7275 374.911 34.5169 374.098 35.2168C373.3 35.9167 372.429 36.5107 371.485 36.999C370.558 37.4873 369.573 37.8535 368.531 38.0977C367.506 38.3581 366.448 38.4883 365.357 38.4883C363.518 38.4883 361.785 38.1465 360.157 37.4629C358.546 36.7793 357.13 35.8271 355.909 34.6064C354.705 33.3857 353.753 31.9372 353.053 30.2607C352.353 28.568 352.003 26.7126 352.003 24.6943C352.003 22.6273 352.353 20.7393 353.053 19.0303C353.753 17.3213 354.705 15.8646 355.909 14.6602C357.13 13.4557 358.546 12.5199 360.157 11.8525C361.785 11.1852 363.518 10.8516 365.357 10.8516C366.448 10.8516 367.514 10.9818 368.556 11.2422C369.597 11.5026 370.582 11.877 371.51 12.3652C372.454 12.8535 373.333 13.4557 374.146 14.1719C374.96 14.8717 375.676 15.6611 376.295 16.54L363.795 31.6035ZM367.213 17.8584C366.904 17.7445 366.594 17.6712 366.285 17.6387C365.992 17.6061 365.683 17.5898 365.357 17.5898C364.446 17.5898 363.583 17.7607 362.77 18.1025C361.972 18.4281 361.272 18.9001 360.67 19.5186C360.084 20.137 359.62 20.8857 359.278 21.7646C358.937 22.6273 358.766 23.6038 358.766 24.6943C358.766 24.9385 358.774 25.2152 358.79 25.5244C358.823 25.8337 358.863 26.151 358.912 26.4766C358.977 26.7858 359.05 27.0869 359.132 27.3799C359.213 27.6729 359.319 27.9333 359.449 28.1611L367.213 17.8584ZM386.329 38H379.664V11.8525H381.275L383.473 14.9531C384.547 13.9766 385.768 13.2279 387.135 12.707C388.502 12.1699 389.918 11.9014 391.383 11.9014H397.267V18.542H391.383C390.683 18.542 390.024 18.6722 389.405 18.9326C388.787 19.193 388.25 19.5511 387.794 20.0068C387.338 20.4626 386.98 20.9997 386.72 21.6182C386.459 22.2367 386.329 22.8958 386.329 23.5957V38Z" fill="#E5E5E5" fill-opacity="0.8"/>
</svg>
